$MeshFormat
4.1 0 8
$EndMeshFormat
$PhysicalNames
5
1 1 "Qin"
1 2 "West"
1 3 "Qout"
1 4 "East"
2 5 "domain"
$EndPhysicalNames
$Entities
4 4 1 0
1 227436.6947172503 2564540.724730113 0 0 
2 227109.530170851 2564583.479187881 0 0 
3 226300.913252187 2562020.07061132 0 0 
4 226836.2734190259 2561923.408358977 0 0 
1 227109.530170851 2564540.724730113 0 227436.6947172503 2564583.479187881 0 1 1 2 1 -2 
2 226300.913252187 2562020.07061132 0 227109.530170851 2564583.479187881 0 1 2 2 2 -3 
3 226300.913252187 2561923.408358977 0 226836.2734190259 2562020.07061132 0 1 3 2 3 -4 
4 226836.2734190259 2561923.408358977 0 227540.6758315558 2564540.724730113 0 1 4 2 4 -1 
1 226300.913252187 2561923.408358977 0 227540.6758315558 2564583.479187881 0 1 5 4 1 2 3 4 
$EndEntities
$Nodes
9 829 1 829
0 1 0 1
1
227436.6947172503 2564540.724730113 0
0 2 0 1
2
227109.530170851 2564583.479187881 0
0 3 0 1
3
226300.913252187 2562020.07061132 0
0 4 0 1
4
226836.2734190259 2561923.408358977 0
1 1 0 6
5
6
7
8
9
10
227389.9569249006 2564546.832509795 0
227343.219132563 2564552.940289475 0
227296.4813402367 2564559.048069154 0
227249.7435478646 2564565.155848839 0
227203.0057555383 2564571.263628518 0
227156.2679632007 2564577.371408198 0
1 2 0 60
11
12
13
14
15
16
17
18
19
20
21
22
23
24
25
26
27
28
29
30
31
32
33
34
35
36
37
38
39
40
41
42
43
44
45
46
47
48
49
50
51
52
53
54
55
56
57
58
59
60
61
62
63
64
65
66
67
68
69
70
227097.9730591043 2564535.028219405 0
227086.4159473561 2564486.577250923 0
227074.8588356114 2564438.126282456 0
227063.3017238605 2564389.675313964 0
227037.1567851564 2564347.960301771 0
227007.7678984317 2564307.743930466 0
226978.3790117901 2564267.527559274 0
226948.9901250689 2564227.311187973 0
226919.6743395037 2564187.049573483 0
226896.9599601741 2564142.719897696 0
226874.2455808898 2564098.390221997 0
226851.5312015451 2564054.060546181 0
226828.8168222485 2564009.730870459 0
226806.1024429511 2563965.401194734 0
226778.8596632133 2563923.723538734 0
226751.3125095175 2563882.223930569 0
226723.7653558265 2563840.724322413 0
226696.2182021356 2563799.224714256 0
226668.6710484408 2563757.725106094 0
226637.7613646723 2563718.744399562 0
226605.6767879097 2563680.643964657 0
226573.5922111455 2563642.543529749 0
226542.3336372547 2563604.071309912 0
226535.2272255541 2563554.770578742 0
226528.1208138337 2563505.469847435 0
226521.0144021512 2563456.16911639 0
226513.9079904433 2563406.86838517 0
226496.8930685303 2563360.256892875 0
226478.0998080221 2563314.12798072 0
226459.3065474828 2563267.999068488 0
226440.5132868983 2563221.870156146 0
226444.373534737 2563177.82403819 0
226471.2771875929 2563135.904393044 0
226498.1808404406 2563093.98474791 0
226525.0844932228 2563052.065102878 0
226551.988146074 2563010.145457739 0
226578.89179893 2562968.225812592 0
226604.2564161654 2562925.387642529 0
226628.3803219126 2562881.808974083 0
226652.5042277803 2562838.23030542 0
226676.6281336428 2562794.651636765 0
226700.7520394406 2562751.072968228 0
226709.1492535234 2562702.77276004 0
226713.0117206149 2562653.112468868 0
226716.8741877189 2562603.452177532 0
226720.7366548257 2562553.791886162 0
226724.5991219173 2562504.131594987 0
226728.4615890178 2562454.471303697 0
226730.5235769426 2562405.735826435 0
226687.7269975784 2562380.250222995 0
226644.9304182393 2562354.764619569 0
226602.1338389001 2562329.279016143 0
226559.337259561 2562303.793412717 0
226516.5406802218 2562278.30780929 0
226473.7441008826 2562252.822205864 0
226430.9475215284 2562227.336602429 0
226394.1357104015 2562196.157476828 0
226370.8300958764 2562152.135760505 0
226347.5244813495 2562108.114044179 0
226324.2188667312 2562064.09232768 0
1 3 0 10
71
72
73
74
75
76
77
78
79
80
226349.5823582457 2562011.283133838 0
226398.2514643527 2562002.495656346 0
226446.9205704114 2561993.708178864 0
226495.5896765049 2561984.920701375 0
226544.2587825771 2561976.13322389 0
226592.9278886358 2561967.345746407 0
226641.596994708 2561958.558268922 0
226690.2661008015 2561949.770791434 0
226738.9352068602 2561940.983313951 0
226787.6043129672 2561932.19583646 0
1 4 0 60
81
82
83
84
85
86
87
88
89
90
91
92
93
94
95
96
97
98
99
100
101
102
103
104
105
106
107
108
109
110
111
112
113
114
115
116
117
118
119
120
121
122
123
124
125
126
127
128
129
130
131
132
133
134
135
136
137
138
139
140
226877.3860178941 2561950.816758221 0
226918.4986167983 2561978.22515749 0
226959.6112157533 2562005.633556793 0
227000.7238147084 2562033.041956095 0
227041.8364136634 2562060.450355398 0
227082.9490125829 2562087.858754677 0
227124.061611462 2562115.267153929 0
227163.4038073745 2562144.462645803 0
227191.1671193862 2562185.336410708 0
227218.9304313134 2562226.210175489 0
227246.6937432828 2562267.083940331 0
227274.4570552383 2562307.957705154 0
227287.8062936064 2562350.384458324 0
227269.3646269939 2562396.225172473 0
227250.922960395 2562442.065886588 0
227232.481293796 2562487.906600704 0
227214.039627197 2562533.74731482 0
227195.597960598 2562579.588028935 0
227177.1562939622 2562625.428743143 0
227161.9269517517 2562672.093859969 0
227156.0276008861 2562721.151619798 0
227150.1282500261 2562770.20937958 0
227144.2288991603 2562819.267139411 0
227138.3295482874 2562868.3248993 0
227132.4301974244 2562917.382659107 0
227126.5308465634 2562966.440418898 0
227120.6314956905 2563015.498178787 0
227114.7321448227 2563064.555938635 0
227108.8327939627 2563113.613698416 0
227102.9334431028 2563162.671458198 0
227097.0340922427 2563211.729217981 0
227096.6325558356 2563260.351025988 0
227110.2068549152 2563307.861072766 0
227123.7811539936 2563355.37111954 0
227137.3554531008 2563402.881166414 0
227150.9297521845 2563450.391213207 0
227164.5040512558 2563497.901259956 0
227194.4163838568 2563536.125580847 0
227228.2941161828 2563572.094531217 0
227262.1718485857 2563608.063481668 0
227296.0495809737 2563644.032432104 0
227329.9273132992 2563680.001382472 0
227363.8050456305 2563715.970332848 0
227397.6827779597 2563751.939283221 0
227431.560510283 2563787.908233588 0
227465.4382426313 2563823.877183981 0
227480.1005244848 2563870.588513565 0
227492.9923510625 2563918.2882719 0
227505.8841776428 2563965.988030246 0
227518.7760042681 2564013.687788757 0
227531.6678308469 2564061.387547097 0
227540.6758315558 2564109.070206999 0
227527.3315759982 2564156.645378985 0
227513.9873204134 2564204.220551067 0
227500.6430648423 2564251.795723102 0
227487.2988093524 2564299.370894846 0
227473.9545538503 2564346.946066634 0
227460.6102982899 2564394.52123863 0
227451.6194079449 2564443.035845573 0
227444.1570625703 2564491.880288022 0
2 1 0 689
141
142
143
144
145
146
147
148
149
150
151
152
153
154
155
156
157
158
159
160
161
162
163
164
165
166
167
168
169
170
171
172
173
174
175
176
177
178
179
180
181
182
183
184
185
186
187
188
189
190
191
192
193
194
195
196
197
198
199
200
201
202
203
204
205
206
207
208
209
210
211
212
213
214
215
216
217
218
219
220
221
222
223
224
225
226
227
228
229
230
231
232
233
234
235
236
237
238
239
240
241
242
243
244
245
246
247
248
249
250
251
252
253
254
255
256
257
258
259
260
261
262
263
264
265
266
267
268
269
270
271
272
273
274
275
276
277
278
279
280
281
282
283
284
285
286
287
288
289
290
291
292
293
294
295
296
297
298
299
300
301
302
303
304
305
306
307
308
309
310
311
312
313
314
315
316
317
318
319
320
321
322
323
324
325
326
327
328
329
330
331
332
333
334
335
336
337
338
339
340
341
342
343
344
345
346
347
348
349
350
351
352
353
354
355
356
357
358
359
360
361
362
363
364
365
366
367
368
369
370
371
372
373
374
375
376
377
378
379
380
381
382
383
384
385
386
387
388
389
390
391
392
393
394
395
396
397
398
399
400
401
402
403
404
405
406
407
408
409
410
411
412
413
414
415
416
417
418
419
420
421
422
423
424
425
426
427
428
429
430
431
432
433
434
435
436
437
438
439
440
441
442
443
444
445
446
447
448
449
450
451
452
453
454
455
456
457
458
459
460
461
462
463
464
465
466
467
468
469
470
471
472
473
474
475
476
477
478
479
480
481
482
483
484
485
486
487
488
489
490
491
492
493
494
495
496
497
498
499
500
501
502
503
504
505
506
507
508
509
510
511
512
513
514
515
516
517
518
519
520
521
522
523
524
525
526
527
528
529
530
531
532
533
534
535
536
537
538
539
540
541
542
543
544
545
546
547
548
549
550
551
552
553
554
555
556
557
558
559
560
561
562
563
564
565
566
567
568
569
570
571
572
573
574
575
576
577
578
579
580
581
582
583
584
585
586
587
588
589
590
591
592
593
594
595
596
597
598
599
600
601
602
603
604
605
606
607
608
609
610
611
612
613
614
615
616
617
618
619
620
621
622
623
624
625
626
627
628
629
630
631
632
633
634
635
636
637
638
639
640
641
642
643
644
645
646
647
648
649
650
651
652
653
654
655
656
657
658
659
660
661
662
663
664
665
666
667
668
669
670
671
672
673
674
675
676
677
678
679
680
681
682
683
684
685
686
687
688
689
690
691
692
693
694
695
696
697
698
699
700
701
702
703
704
705
706
707
708
709
710
711
712
713
714
715
716
717
718
719
720
721
722
723
724
725
726
727
728
729
730
731
732
733
734
735
736
737
738
739
740
741
742
743
744
745
746
747
748
749
750
751
752
753
754
755
756
757
758
759
760
761
762
763
764
765
766
767
768
769
770
771
772
773
774
775
776
777
778
779
780
781
782
783
784
785
786
787
788
789
790
791
792
793
794
795
796
797
798
799
800
801
802
803
804
805
806
807
808
809
810
811
812
813
814
815
816
817
818
819
820
821
822
823
824
825
826
827
828
829
226921.9846485813 2564100.605590337 0
227054.7256031212 2563235.692381946 0
227090.0818633642 2563393.603421635 0
227473.7723330144 2564001.004986056 0
227282.7671112181 2563691.128014938 0
226527.3689246537 2563320.948090936 0
226799.1235921434 2563877.782686066 0
226566.2726180614 2563474.899575284 0
226567.4534599413 2563052.696300859 0
227018.7899182144 2564260.298260493 0
226685.7816888367 2563709.58673947 0
227061.5886681003 2563088.722586137 0
227148.057208699 2563542.53788708 0
227173.031570785 2562232.448632036 0
227186.7071243777 2562497.442810043 0
227469.668503806 2564219.104713436 0
226656.9739835411 2562925.887139427 0
227040.5564282221 2562107.239085723 0
227383.4716190905 2563799.262734937 0
227090.9657694935 2562941.607763033 0
226770.5178577351 2562532.576976992 0
226915.6205127625 2562026.39239314 0
226752.5834621914 2562738.164660541 0
227422.4299230263 2564363.688081956 0
226645.7454529783 2562304.800412812 0
227116.3998600328 2562691.625760174 0
226721.4969923344 2561985.671195401 0
227264.1265663126 2564523.414165271 0
226577.0220632367 2562010.855111476 0
226852.9704515371 2563971.129213365 0
227110.9627235963 2564404.047828811 0
226771.9567622835 2562432.355364579 0
226774.2070940619 2562382.645950451 0
226816.1112003884 2562409.359941988 0
226818.3004067439 2562359.435962772 0
226860.4509984956 2562386.251816744 0
226862.5742647197 2562336.299462424 0
226904.7720260588 2562363.110903079 0
226902.6487751743 2562413.065610245 0
226946.9743081349 2562389.923691889 0
226944.8557540561 2562439.878908909 0
226820.3793824341 2562309.479262392 0
226864.6810331078 2562286.343330028 0
226822.4721717728 2562259.539588272 0
226517.2135696234 2562228.502082123 0
226625.9991906335 2563635.173336442 0
226866.785109075 2562236.391460265 0
226824.5771042883 2562209.587290747 0
226949.092472693 2562339.967761645 0
226991.2966368262 2562366.781111567 0
226702.105851828 2562834.905641074 0
226745.931493714 2563796.117983169 0
226758.1974218268 2562630.060690235 0
226518.9343720463 2563134.824736127 0
227147.0145107789 2562586.767322337 0
227105.0630355501 2562791.614702175 0
227212.9042369642 2562399.244280369 0
227216.6262945372 2563618.651743197 0
227442.275409166 2563903.662029675 0
226993.4147828928 2562316.825784768 0
226478.3691823924 2562034.505599908 0
227035.6181531888 2562343.638020222 0
227033.4998814783 2562393.593164898 0
227494.8771509553 2564088.581028055 0
226868.8934210429 2562186.435819305 0
226826.6847770069 2562159.632278906 0
226782.3679185797 2562182.784287483 0
226900.5292648235 2562463.021095237 0
226942.7370945089 2562489.834111362 0
226900.6638713305 2562513.08957155 0
226941.7293477862 2562539.839304885 0
226985.1261152158 2562516.654805594 0
226983.0386344459 2562566.611326071 0
226939.4574131989 2562589.785648564 0
226980.8997563553 2562616.56520481 0
226934.6821079162 2562639.627646109 0
226978.3350813961 2562666.501250282 0
226932.0464721837 2562689.560723588 0
226911.1020217609 2562213.239502845 0
226976.0560579616 2562716.449502748 0
226931.7076822931 2562739.59127546 0
226974.3490687631 2562766.422039501 0
226929.9544139899 2562789.561857224 0
226972.2184374639 2562816.376625598 0
226927.8947940622 2562839.519452164 0
226885.6912961972 2562812.707251453 0
226883.5825916293 2562862.662763565 0
226925.7873755201 2562889.475020126 0
226881.4676044229 2562912.618010368 0
226923.6713402127 2562939.430221648 0
226879.3501335574 2562962.573155529 0
226921.5534571955 2562989.385345772 0
226877.2319387795 2563012.528269597 0
226835.0287953082 2562985.71608616 0
226832.9103881078 2563035.671191455 0
226875.1135567578 2563062.483374268 0
226830.7919562554 2563085.626294065 0
226872.9951204952 2563112.438476929 0
226828.6735069703 2563135.581396067 0
226871.8649319419 2563162.435487398 0
226826.7197671786 2563185.543482448 0
226869.9386438763 2563212.398737722 0
226824.6607926572 2563235.501105988 0
226866.8738748831 2563262.31370869 0
226822.31816261 2563285.446701304 0
226864.5603415045 2563312.260537439 0
226820.2062149093 2563335.402078448 0
226862.4104598881 2563362.214306005 0
226818.081870329 2563385.356929958 0
226860.2857892019 2563412.169142564 0
226815.9631297356 2563435.312018185 0
226858.1662538969 2563462.124198458 0
226782.2982427589 2563208.682160754 0
226813.8443850266 2563485.267107807 0
226856.0475730845 2563512.07929141 0
226775.8792622102 2563358.544767422 0
226898.9220368602 2563489.831518585 0
226896.9381542574 2563540.727008563 0
226853.7103233424 2563562.340310231 0
226895.8770180542 2563589.203480748 0
226786.4703455825 2563108.769212568 0
226940.8808856908 2563567.4415508 0
226938.3640300718 2563616.007893319 0
226893.9760172814 2563638.919340924 0
226936.2154175664 2563665.691659785 0
226980.543072514 2563642.542099542 0
226978.4200977266 2563692.426046078 0
226934.098227731 2563715.581926349 0
226976.3015980423 2563742.383307407 0
227020.6232491036 2563719.23859182 0
227018.5048023362 2563769.193334307 0
227062.8264166295 2563746.050420215 0
227060.7079577967 2563796.005522968 0
227016.3863421644 2563819.148433872 0
227058.5895025281 2563845.960622448 0
227102.9111161705 2563822.81771191 0
227100.7926611462 2563872.772811506 0
227145.1142764708 2563849.629901823 0
227142.9958180213 2563899.585000697 0
227098.6742015606 2563922.727912133 0
227140.8773585831 2563949.540101551 0
227185.1989737028 2563926.397192753 0
227183.0805136766 2563976.352293008 0
227138.7588976162 2563999.495203343 0
227180.9620556277 2564026.307392628 0
227225.2836693837 2564003.164484177 0
227223.165209319 2564053.119588044 0
227178.8435917633 2564076.262493368 0
227221.0467447671 2564103.074687518 0
227265.3683642468 2564079.931782809 0
227263.2498993512 2564129.886882223 0
227218.9282812423 2564153.029788915 0
227261.1314366957 2564179.841982733 0
227217.2550920225 2564203.003772627 0
227259.0871854103 2564229.800230951 0
226771.6412380182 2563458.454918339 0
227014.2678877659 2563869.103533913 0
226769.5227554371 2563508.410024656 0
226906.7244856615 2563339.071065105 0
227307.5715177971 2564106.743975591 0
227309.6899827571 2564056.788876346 0
227176.3732528263 2564174.231755993 0
227218.9587195495 2564253.321649853 0
227257.3321896361 2564279.779452847 0
226972.0647263397 2563842.291345701 0
227147.232732276 2563799.674801753 0
227189.435892908 2563826.486991092 0
227064.9448695084 2563696.095375356 0
227301.3014438602 2564256.614348623 0
226790.7072364408 2563008.859006173 0
226924.486070158 2563138.954068449 0
227411.8696572067 2564453.640117473 0
226727.3195863744 2563481.597833385 0
227037.736447472 2562293.682903906 0
226966.7579937114 2564182.571719381 0
226440.3190080026 2562174.265015597 0
226784.4760291414 2562132.828839151 0
226740.1591536591 2562155.98086573 0
227299.1848273683 2564306.569767586 0
227255.8213223061 2564329.753347585 0
227297.1679389553 2564356.528052938 0
227251.8627132429 2564380.984598167 0
227079.9397202318 2562320.495000956 0
226792.8256956896 2562958.903903396 0
226725.2011370361 2563531.552943697 0
226913.2102006523 2562163.283906922 0
226883.8080195339 2562709.301987427 0
226910.9613862858 2563239.160861658 0
227351.8931356425 2564083.601069734 0
227349.7746749288 2564133.556170505 0
226969.9462710318 2563892.246448644 0
226841.3810028785 2562835.850642587 0
226892.8624691254 2562610.158410794 0
227354.0115998658 2564033.645968049 0
226738.1042099596 2562205.852537545 0
226695.5673107039 2562179.565890472 0
226697.9046400179 2562129.24953171 0
226653.2962999069 2562152.860548233 0
226955.4228545601 2562190.091581524 0
227293.7591786176 2564408.009481824 0
227027.1619013777 2562543.459506927 0
226927.7431118008 2563865.434262869 0
227138.274830699 2564502.076078663 0
226965.8750951472 2562966.242427616 0
226963.7567881742 2563016.197534457 0
227191.5543516906 2563776.53188953 0
227233.7575089369 2563803.344075245 0
227343.4192802607 2564283.421475939 0
226828.7928469655 2562109.676865387 0
226682.9979745054 2563504.740757737 0
226685.1164183041 2563454.785650544 0
226655.6779421846 2562102.474405404 0
226611.3580762371 2562125.631154974 0
227215.2740879997 2564351.077632328 0
227208.3359678209 2564402.805298423 0
227118.3583689191 2562162.37615086 0
226748.5040863616 2562982.046816167 0
226485.0403699614 2563230.15350794 0
226786.5841903473 2562082.873338373 0
226397.3663839648 2562112.808733397 0
227220.8762712482 2562313.101505041 0
226607.7842580666 2562177.211904742 0
226566.0806495045 2562149.978120992 0
227024.5949573584 2562642.567342633 0
226750.6225497104 2562932.09171369 0
226813.2513193677 2562458.175183305 0
227117.9414834102 2563491.319154047 0
227092.1007221742 2563535.375728291 0
227066.1832382022 2563490.890445773 0
227109.6787497671 2563579.928139659 0
227061.8934092593 2563575.049595605 0
226778.0282555306 2562282.407684705 0
227029.2966743818 2562493.505132926 0
227071.4746531185 2562520.316198675 0
227073.5916472551 2562470.360996023 0
226746.3856325663 2563032.001920584 0
226704.1824727401 2563005.189729027 0
226702.0640192468 2563055.144832574 0
227107.1480300366 2563722.907500406 0
227345.551969654 2564233.467221697 0
226842.443621711 2562784.161604846 0
227231.6390507004 2563853.299179804 0
227275.9606666978 2563830.156264938 0
227273.8422104042 2563880.111367193 0
227311.8084472244 2564006.833772393 0
227356.130068398 2563983.6908589 0
227012.1494330839 2563919.058634692 0
226967.8278168884 2563942.201551052 0
227010.0309780698 2563969.013735424 0
226965.7093648341 2563992.156652927 0
227007.9125256683 2564018.968837906 0
226767.4042999091 2563558.365124427 0
226723.0826926287 2563581.508049897 0
226765.2858567735 2563608.320225312 0
226929.8615664795 2563815.479159686 0
227007.9753974471 2562993.216718429 0
227396.0900057426 2564060.654524101 0
226801.5390803736 2562808.762528615 0
227081.7488822287 2562270.526777606 0
227039.8032496853 2562243.725643227 0
227018.6706841923 2562743.27912327 0
226886.126444201 2563838.646948849 0
226887.7561548824 2563788.671120174 0
226830.2196405946 2562060.148650918 0
227109.6335265393 2563673.655344736 0
227151.5308177715 2563699.881743569 0
226700.3079449969 2562079.762789283 0
226653.9171892773 2562047.103687346 0
227121.9102321397 2562297.052654471 0
227121.7511245639 2562347.257174669 0
227317.7021670711 2563857.69512033 0
227387.2271366835 2564261.091130247 0
227097.6845246674 2564355.58139091 0
226846.4037864049 2563812.30140159 0
226845.9827091125 2563761.937401636 0
227278.5723710093 2563781.145792395 0
226956.7178644736 2562141.407892874 0
227338.3670011638 2564383.560787983 0
226660.6900425431 2563028.367805886 0
226658.709783184 2563078.328766613 0
226700.1067909022 2563105.106771863 0
226655.8120461756 2563128.250823434 0
226697.885322895 2563155.057504302 0
226653.5465410715 2563178.199690392 0
226695.7251902963 2563205.010837303 0
226651.3966301734 2563228.153457114 0
226693.5945455927 2563254.965421497 0
226649.2708984269 2563278.108250828 0
226607.1976142849 2563251.545427221 0
226691.4728491402 2563304.920385659 0
226647.1506922053 2563328.063279314 0
226689.3535633387 2563354.875452911 0
226645.0318107981 2563378.018361286 0
226613.5250122542 2563151.480019659 0
227389.5366337711 2564210.469198554 0
226692.467967972 2562230.120785811 0
226568.2871738338 2562100.132491671 0
226524.5733227882 2562122.32609705 0
226915.7980829857 2562114.717427022 0
227071.5344763653 2562567.494235484 0
226721.267192346 2563630.986319221 0
226763.520850816 2563657.719018492 0
226953.3192171404 2562240.054517793 0
226581.3732493796 2563573.281436922 0
226735.7942680382 2563281.777466207 0
227315.9684271191 2563907.044668613 0
227358.1028740706 2563886.245985231 0
227271.7109253629 2563930.086655912 0
226794.9441643694 2562908.948795352 0
227052.2341351613 2563995.82591978 0
227050.1156827349 2564045.781020608 0
227006.8481836971 2564068.968639948 0
227048.1729160791 2564095.743572803 0
226807.5479230103 2563635.039680641 0
226805.4392924456 2563684.979333552 0
227092.3481184714 2564072.59444908 0
227090.2345437942 2564122.549759012 0
227047.3388157629 2564145.753139548 0
227094.2237537875 2564178.605978791 0
227008.8119765444 2562943.235007063 0
227056.179885076 2563284.657218042 0
227011.5321990933 2563259.685724555 0
227012.2932381303 2563209.064550271 0
227011.0955341025 2563309.534008034 0
226826.0937307685 2561966.134581293 0
226883.5397353377 2563889.158713347 0
226763.4639933425 2563704.248555806 0
226604.3294576093 2563351.269826649 0
226600.7100585186 2563401.161276204 0
227334.4244710605 2564432.04604057 0
227004.8537514393 2563040.95107747 0
226960.1817869077 2563063.373120418 0
226999.7356990128 2562166.935425683 0
226786.4761655402 2562033.479661167 0
227002.9558122637 2563090.836157665 0
226971.5705924447 2563286.368576677 0
226642.457006685 2563476.009756229 0
226641.1408572514 2563526.338339907 0
227069.168778127 2563649.169390766 0
227071.929663531 2564310.438997264 0
227123.8085035817 2564314.149295674 0
227103.0750166606 2564269.310878641 0
227358.6635666683 2564509.308967732 0
227048.0681320805 2563015.868054297 0
226959.1925735618 2562096.970373218 0
226729.9505330141 2562787.169152522 0
227298.3592360665 2564459.077490255 0
227151.7881841972 2563648.524648887 0
227043.7603196731 2564195.646324364 0
226753.6525137042 2562884.496034954 0
227113.6673430882 2562492.969376475 0
227116.7486746208 2562444.974501565 0
226925.8838876579 2563963.191900633 0
226922.6135302079 2564016.810042393 0
227195.8023986719 2563669.064358816 0
227053.3764737916 2563333.326760122 0
227009.0325989646 2563359.198462397 0
227080.2562629518 2562222.051200707 0
227148.4797947008 2564270.910606071 0
227123.2142408069 2564226.218002304 0
227141.3922121948 2564363.684828831 0
226678.7610842232 2563604.65098191 0
226872.4345687832 2561995.823238271 0
227392.3457503315 2564316.085666456 0
227124.4082819413 2562634.072441516 0
226527.0076061789 2562071.918833056 0
226481.8088071934 2562093.008595071 0
226426.1648628813 2562074.193845608 0
226383.2557984305 2562043.942116324 0
227168.8997745148 2562317.90107048 0
227164.3462051272 2562374.119112025 0
226800.3883551551 2562757.80695048 0
226796.2032685155 2562703.427925136 0
227152.7137722328 2563596.512823671 0
226678.1882784923 2563655.535999736 0
227431.2341671335 2564286.104283899 0
227381.3855131624 2564410.143866049 0
226709.7965591133 2562907.64510867 0
226522.7912216693 2562171.829909422 0
227074.3234273042 2562663.942491763 0
227069.2163399638 2562713.612966122 0
226798.7140925666 2563790.741985403 0
226553.0808752213 2563370.121568104 0
226835.6973741439 2563917.504782325 0
227089.0561512898 2563444.589392242 0
227038.0896240429 2563452.335321954 0
227016.4122926823 2563494.994792123 0
226991.4910228432 2563456.302808292 0
226976.3634000218 2563495.777615721 0
226988.2761969867 2563540.403220555 0
226661.9793135757 2562978.377543818 0
227055.7697032021 2563185.00688931 0
227013.6442963723 2563161.326459811 0
226968.1469462036 2563179.516415354 0
226980.2618315102 2563132.731825011 0
226492.9404874643 2563182.583254024 0
226542.3061616383 2563180.289124882 0
226714.0851135763 2563755.307945023 0
227174.3544225184 2564534.779062768 0
227174.0190200419 2564319.824011612 0
226630.1957110511 2563579.748284288 0
227160.2998680131 2564417.189456799 0
227199.4444988801 2564451.100527915 0
226840.0273996047 2562730.327265317 0
226838.3440152966 2562678.240550649 0
226887.7016496818 2562659.055883769 0
226847.7948684284 2562626.690088864 0
226855.7962011322 2562578.733238038 0
226808.9000076136 2562592.140751246 0
226819.3499658029 2562546.105138518 0
226731.8115932932 2562356.025835009 0
227242.5314207321 2562355.470271707 0
227250.6255489383 2564438.990035669 0
226622.2516991641 2563001.322208141 0
226753.8634975607 2562832.491305456 0
226688.6788088845 2562330.103955501 0
226689.7392523071 2562280.02474911 0
226647.5336921693 2562254.338724003 0
226919.0093914569 2563189.457213525 0
226733.4375352938 2562306.084184547 0
226769.0922535681 2562482.611825676 0
226856.7637969428 2562485.524133164 0
226961.4193568653 2563232.645195498 0
227058.9610899813 2563137.207709765 0
226971.3085620591 2563336.644741522 0
226971.4795879996 2563384.643510694 0
226650.2225975461 2562203.438985687 0
226604.7877342668 2562228.85998789 0
227041.2830599666 2562194.46019256 0
226951.2090377932 2562290.012381493 0
226997.5162187339 2562217.023040891 0
226906.8852271211 2562313.150912805 0
227119.7664074363 2562396.880085452 0
227162.0987954565 2562422.295707665 0
226858.2925591987 2562435.899630114 0
227031.3882482739 2562443.548722889 0
227075.469380211 2562419.967930404 0
226989.1791092393 2562416.736171204 0
226740.0535236817 2563181.868211326 0
226482.5704654528 2562146.063047067 0
226908.9947340386 2562263.196264499 0
227357.2400865055 2563934.140607583 0
227193.3579916615 2563725.85125146 0
226616.1621294941 2563104.067839622 0
227313.7438722834 2563956.969687733 0
227394.9090309093 2563960.298763465 0
226687.2349070496 2563404.83053939 0
226731.5567035101 2563381.687634237 0
226680.8795251006 2563554.695870626 0
227395.523966675 2564010.616827096 0
227149.3089145832 2563749.618300272 0
227236.0720853531 2563754.884618662 0
226606.7204661807 2563301.366922446 0
226558.9063848194 2563276.870433872 0
227017.2155997413 2562791.642994612 0
227014.5423007447 2562842.924037595 0
227059.9988188553 2562815.960070901 0
227055.5553969668 2562866.506667619 0
226873.5815014689 2562089.07053002 0
226889.8810251396 2563738.72849764 0
227394.0754990526 2564110.445992047 0
227446.3933695342 2564087.382778107 0
227436.2994397399 2564137.225464078 0
227303.3635521746 2564206.655688839 0
227347.6562235132 2564183.511274703 0
227328.3847292438 2563804.311957877 0
227322.4007386231 2563757.058250716 0
226780.3019884975 2562232.593360433 0
226917.3167367337 2563089.295558349 0
227028.4867497485 2562591.994324946 0
226705.3431608403 2562955.2063418 0
226982.2807446024 2563593.34788378 0
226987.0971659459 2562466.692975481 0
226901.0198935766 2563389.287723611 0
226900.1589782888 2563438.749251745 0
226610.2998770953 2562078.22149449 0
226777.9979616755 2563308.589676641 0
226733.6757679854 2563331.732563846 0
227023.0933726803 2563669.799921553 0
226919.1923774247 2563038.877200476 0
227177.0195645662 2564125.894103939 0
227227.3999915666 2563953.212745706 0
227269.5722897108 2563980.040672357 0
226908.8429403651 2563289.115961513 0
226788.5887916687 2563058.814108603 0
226744.2940478638 2563081.958162171 0
227105.0225279154 2563772.845709587 0
226780.1635381198 2563258.636572488 0
226737.9382180812 2563231.823444929 0
226784.3940155647 2563158.726098333 0
226744.9399813588 2562057.72980131 0
227229.5180977207 2563903.258206047 0
227267.481327107 2564029.979862687 0
227187.317018254 2563876.442745369 0
227305.4578840767 2564156.699329099 0
226773.760032439 2563408.499827674 0
227054.3525914711 2563945.870821325 0
226871.1601383537 2562137.136137927 0
227077.8214222014 2562370.450111603 0
226742.200674415 2563131.91432676 0
226811.6894641498 2563535.273193912 0
226885.6054055549 2562760.941873621 0
226891.9060948854 2563688.79428253 0
226970.1253191694 2562866.287815905 0
226967.9344438803 2564042.662696641 0
227030.9978128318 2563616.244709175 0
226926.5815450401 2563914.276129688 0
226611.8970039791 2563201.740418628 0
226974.1831765471 2563792.336607018 0
226742.3953232535 2562106.404194259 0
226931.9887705062 2563765.525633894 0
226995.4998256196 2562266.887378679 0
227056.4710481452 2563895.915722484 0
227010.0266544867 2564119.791262324 0
226967.7644027445 2562916.302485681 0
227136.6453222528 2564049.450505768 0
226839.2642196667 2562885.80581323 0
227096.555745175 2563972.683007693 0
227021.5033188068 2562692.734365932 0
227341.6682457753 2564334.364290581 0
226643.7289267486 2563426.805849567 0
226797.3327120664 2562859.278568069 0
226809.5747478082 2563585.221334647 0
226837.1467688357 2562935.760960673 0
227391.6343755403 2564159.849999106 0
227094.4429835686 2564022.638351045 0
227010.6216093069 2562892.481803751 0
227118.154226878 2562543.09168252 0
226851.7297002993 2563612.111452156 0
227134.5824451339 2564099.351968445 0
227133.0881413566 2564149.013784433 0
226849.6921722992 2563661.944565743 0
226847.6922347739 2563711.904447679 0
226729.4381476159 2563431.642733927 0
226804.004710264 2563734.710836958 0
226570.2026404354 2563132.540335994 0
227413.2260331428 2563831.024612521 0
226505.975630229 2563274.797953351 0
226560.1758253712 2562253.940986534 0
226772.010166743 2563837.55242071 0
226573.214306147 2563524.138940634 0
226776.0273778929 2562332.679813313 0
227246.7142599695 2563657.361796781 0
227001.7624275287 2564219.111990044 0
227232.962698529 2564485.987354855 0
226603.2856338744 2562279.168756682 0
226776.3769593211 2561983.5355358 0
226672.6536901732 2561996.423987711 0
226623.9720893666 2562003.075315608 0
227475.9220975582 2564171.621094688 0
227168.5997192425 2562541.442590976 0
227197.5120579602 2562271.541704115 0
227459.2154275184 2563952.962189916 0
227121.7252432862 2564452.789417868 0
226528.9723170965 2562022.489252308 0
227110.2835572161 2562741.459809456 0
226735.6081737631 2562255.954328498 0
227012.1113472373 2563410.507502821 0
226561.1385919738 2562203.849728254 0
227064.1222512673 2562763.461358582 0
226760.7811515366 2562579.541440785 0
227309.1035693731 2564509.312032077 0
227048.8326426067 2562966.753797962 0
227438.6394241304 2564032.369498002 0
226558.7262878629 2563425.570631164 0
227200.9723582175 2562451.495391556 0
226571.2519333517 2563220.702987009 0
227080.2866848516 2562134.269657153 0
227125.2979983514 2562241.020523241 0
226755.1587865729 2562678.245445502 0
226897.0185179228 2564058.441515903 0
227172.7263887612 2564227.602484358 0
227100.1754319906 2562841.669567818 0
227071.9220095967 2562614.241728677 0
227219.1977186983 2564529.167566 0
226722.8990521369 2563678.8027437 0
226707.4837531893 2562030.428961149 0
226844.4749667619 2563862.013401071 0
227080.579394167 2564224.701670017 0
227239.6451520412 2563705.700648418 0
227432.1356963183 2564188.28823327 0
227396.9749797776 2563913.794889356 0
226477.9309811931 2562200.136477083 0
227375.2392866919 2564361.568538605 0
227484.0210187915 2564047.402271012 0
226942.1782318131 2564142.005377994 0
226873.8593022659 2564015.142090479 0
227040.9376620923 2563535.179715842 0
226440.8387294572 2562122.999391304 0
226899.4507554679 2562561.86917712 0
227113.5871938322 2563627.214912823 0
226613.040030605 2563053.587654348 0
226942.4359437644 2563461.04626789 0
227363.1777847715 2563839.869764908 0
227094.0644339724 2562892.521060919 0
227218.3197024117 2564303.138800863 0
227428.9006790206 2564241.004926535 0
226800.7663947089 2562651.467575272 0
226758.5619520752 2563749.311189306 0
226602.1779046291 2563447.978111054 0
226885.4517330843 2563937.637911635 0
226676.5624643262 2562876.888300739 0
226966.5133443976 2564098.217276965 0
227000.0695076079 2562078.37300032 0
227281.8677554997 2563735.439590412 0
227401.4023641087 2564500.014882012 0
227051.7709633066 2563378.319767124 0
227051.4753048151 2562917.184350058 0
226872.5692974137 2562042.044636956 0
226815.3582197768 2562506.933590354 0
227333.2205943534 2564476.429744404 0
226917.6855357864 2562069.777935836 0
226541.1206707731 2563091.950056583 0
226937.4977837676 2563409.936735902 0
226568.2250146109 2562054.703892583 0
227187.2955706277 2564495.305033293 0
227010.1075624732 2564169.196734575 0
226958.8171933634 2562051.698202567 0
227149.512178035 2562192.631331708 0
226570.0812216969 2563324.115368402 0
226857.8971350755 2562532.04247479 0
226996.9848232974 2562124.631697802 0
227020.7905828207 2563573.760731027 0
227200.6616606989 2562351.288445004 0
227425.582959926 2564413.005829936 0
227039.2550293616 2562151.433391363 0
227088.5585250292 2562988.720335926 0
226408.6979855405 2562151.673275527 0
227155.1124838616 2562468.173313741 0
227431.4558708496 2563982.226230903 0
226624.8273268385 2562960.18050504 0
226604.566205291 2563497.765621843 0
227079.501292386 2562177.035704011 0
226750.0444649287 2562016.715660482 0
227156.6405566169 2562272.504901315 0
227160.8740743413 2564465.128533379 0
226822.4455857822 2562010.401856483 0
226526.070161244 2563227.56621018 0
227475.7819631553 2564128.638565807 0
227079.2013065594 2563038.445510056 0
227463.5490448309 2564259.476108363 0
227135.9295849852 2564544.648123844 0
226937.7811750777 2563522.223972464 0
227402.4675550263 2563873.521990234 0
226645.5599141621 2563679.61769466 0
227360.8700487965 2563766.680003686 0
226813.21395669 2563837.723616641 0
227316.1535928541 2563715.919514277 0
227440.8006089871 2563862.249092772 0
226427.9726872582 2562027.935820747 0
226581.8365503317 2563177.350577235 0
227442.5743827649 2564323.911635861 0
227368.6481599868 2564460.710123208 0
227079.2451993901 2563609.439560269 0
227106.606701112 2562589.133482106 0
227138.5539056808 2564188.848506502 0
227039.3335340887 2563054.964677125 0
226593.0160923642 2563609.657529818 0
226606.4093791321 2562038.612812154 0
226934.0870814052 2563365.253906105 0
227086.3182808849 2563353.501062222 0
227058.4358184581 2563418.356352587 0
227057.2425565378 2564268.910345627 0
227187.035982844 2564277.993816582 0
226605.3781230199 2563544.717304335 0
226936.7193452271 2563314.421557609 0
227270.1578199771 2564484.379024989 0
226890.205290134 2563980.680354577 0
226953.2282895053 2563101.89246471 0
226979.1167573764 2564142.356474248 0
226718.5157180966 2562869.400163812 0
226466.288997123 2563202.80904013 0
226936.8072556347 2563267.105853432 0
226726.5520651851 2563716.45688676 0
226936.7259291456 2564066.736945555 0
227181.8492435059 2564374.597218842 0
227110.5852201287 2562199.022982106 0
227189.3860337271 2563576.771703677 0
226586.7250269429 2563017.195486736 0
227178.0699120779 2563623.137168281 0
227148.9158040998 2562508.450935451 0
226579.2974478882 2563090.086695786 0
226789.8872456721 2562562.591076885 0
226769.605739226 2562784.332848323 0
227426.2302023655 2563937.792881134 0
226975.8052175711 2563420.639755372 0
227041.8912485229 2564233.01898272 0
226373.3445511141 2562083.651913729 0
227023.4823396456 2563122.164947678 0
$EndNodes
$Elements
5 1656 1 1656
1 1 1 7
1 1 5 
2 5 6 
3 6 7 
4 7 8 
5 8 9 
6 9 10 
7 10 2 
1 2 1 61
8 2 11 
9 11 12 
10 12 13 
11 13 14 
12 14 15 
13 15 16 
14 16 17 
15 17 18 
16 18 19 
17 19 20 
18 20 21 
19 21 22 
20 22 23 
21 23 24 
22 24 25 
23 25 26 
24 26 27 
25 27 28 
26 28 29 
27 29 30 
28 30 31 
29 31 32 
30 32 33 
31 33 34 
32 34 35 
33 35 36 
34 36 37 
35 37 38 
36 38 39 
37 39 40 
38 40 41 
39 41 42 
40 42 43 
41 43 44 
42 44 45 
43 45 46 
44 46 47 
45 47 48 
46 48 49 
47 49 50 
48 50 51 
49 51 52 
50 52 53 
51 53 54 
52 54 55 
53 55 56 
54 56 57 
55 57 58 
56 58 59 
57 59 60 
58 60 61 
59 61 62 
60 62 63 
61 63 64 
62 64 65 
63 65 66 
64 66 67 
65 67 68 
66 68 69 
67 69 70 
68 70 3 
1 3 1 11
69 3 71 
70 71 72 
71 72 73 
72 73 74 
73 74 75 
74 75 76 
75 76 77 
76 77 78 
77 78 79 
78 79 80 
79 80 4 
1 4 1 61
80 4 81 
81 81 82 
82 82 83 
83 83 84 
84 84 85 
85 85 86 
86 86 87 
87 87 88 
88 88 89 
89 89 90 
90 90 91 
91 91 92 
92 92 93 
93 93 94 
94 94 95 
95 95 96 
96 96 97 
97 97 98 
98 98 99 
99 99 100 
100 100 101 
101 101 102 
102 102 103 
103 103 104 
104 104 105 
105 105 106 
106 106 107 
107 107 108 
108 108 109 
109 109 110 
110 110 111 
111 111 112 
112 112 113 
113 113 114 
114 114 115 
115 115 116 
116 116 117 
117 117 118 
118 118 119 
119 119 120 
120 120 121 
121 121 122 
122 122 123 
123 123 124 
124 124 125 
125 125 126 
126 126 127 
127 127 128 
128 128 129 
129 129 130 
130 130 131 
131 131 132 
132 132 133 
133 133 134 
134 134 135 
135 135 136 
136 136 137 
137 137 138 
138 138 139 
139 139 140 
140 140 1 
2 1 2 1516
141 115 116 525 
142 132 133 779 
143 364 610 714 
144 536 537 778 
145 534 311 535 
146 358 536 778 
147 311 534 559 
148 191 51 486 
149 513 710 738 
150 327 545 546 
151 327 544 545 
152 204 132 779 
153 201 506 507 
154 480 16 803 
155 501 481 540 
156 328 559 563 
157 38 146 523 
158 511 197 574 
159 520 364 714 
160 164 517 724 
161 517 164 765 
162 461 113 496 
163 361 510 692 
164 475 152 829 
165 15 16 480 
166 143 115 525 
167 367 153 368 
168 559 534 563 
169 466 524 718 
170 508 360 828 
171 186 502 515 
172 509 508 828 
173 201 507 508 
174 364 520 659 
175 381 544 642 
176 16 150 803 
177 501 540 816 
178 82 162 503 
179 191 486 555 
180 257 733 783 
181 750 562 761 
182 413 15 480 
183 152 475 797 
184 37 38 523 
185 216 218 546 
186 545 513 738 
187 459 500 719 
188 65 66 723 
189 733 529 783 
190 537 194 676 
191 92 93 552 
192 550 750 761 
193 520 521 659 
194 195 99 505 
195 204 602 725 
196 117 153 367 
197 500 459 796 
198 157 518 611 
199 502 186 541 
200 70 71 509 
201 597 595 700 
202 514 488 731 
203 549 193 701 
204 116 367 525 
205 537 676 791 
206 322 340 553 
207 465 81 503 
208 164 504 792 
209 51 52 486 
210 193 549 738 
211 524 147 718 
212 159 606 786 
213 14 15 413 
214 197 511 764 
215 413 481 501 
216 361 92 552 
217 530 262 783 
218 540 354 816 
219 81 82 503 
220 531 157 611 
221 192 522 680 
222 602 704 725 
223 488 514 820 
224 504 164 724 
225 606 159 734 
226 688 408 689 
227 521 401 659 
228 506 201 695 
229 512 163 513 
230 710 193 738 
231 544 327 642 
232 196 597 700 
233 262 530 612 
234 109 110 564 
235 580 316 729 
236 610 440 714 
237 152 564 829 
238 112 113 461 
239 195 505 795 
240 4 81 465 
241 487 702 807 
242 574 197 706 
243 363 362 699 
244 702 487 751 
245 381 512 544 
246 218 327 546 
247 333 216 546 
248 594 146 678 
249 496 113 801 
250 401 521 700 
251 474 687 777 
252 541 478 589 
253 524 466 741 
254 749 404 777 
255 340 487 553 
256 120 121 683 
257 495 198 683 
258 692 510 775 
259 66 316 723 
260 523 146 760 
261 510 361 764 
262 360 508 729 
263 746 483 793 
264 370 514 731 
265 70 3 71 
266 242 240 559 
267 729 316 768 
268 435 721 737 
269 355 322 553 
270 503 749 777 
271 198 495 820 
272 25 147 524 
273 595 401 700 
274 99 100 505 
275 598 735 748 
276 529 530 783 
277 163 512 824 
278 312 746 793 
279 502 541 589 
280 680 522 787 
281 362 568 699 
282 646 371 794 
283 152 109 564 
284 687 465 777 
285 735 160 748 
286 110 532 564 
287 408 688 717 
288 154 709 759 
289 185 519 699 
290 142 463 532 
291 192 28 538 
292 519 363 699 
293 151 515 716 
294 602 204 779 
295 198 120 683 
296 121 145 683 
297 759 709 817 
298 328 242 559 
299 240 311 559 
300 368 153 370 
301 367 368 369 
302 37 523 705 
303 436 557 558 
304 70 509 828 
305 146 594 760 
306 185 65 723 
307 338 336 567 
308 679 568 686 
309 159 677 734 
310 518 157 742 
311 532 463 533 
312 516 136 792 
313 539 343 756 
314 689 408 799 
315 133 690 779 
316 436 558 567 
317 413 480 481 
318 503 162 749 
319 607 123 786 
320 24 25 524 
321 550 161 750 
322 515 151 785 
323 557 436 697 
324 508 509 790 
325 513 163 710 
326 721 156 737 
327 512 513 544 
328 555 398 662 
329 726 743 810 
330 592 720 745 
331 186 515 785 
332 504 516 792 
333 371 646 763 
334 28 29 538 
335 199 722 784 
336 508 507 729 
337 333 546 547 
338 542 355 543 
339 111 142 532 
340 199 784 789 
341 551 560 682 
342 519 185 723 
343 505 714 795 
344 336 436 567 
345 362 338 567 
346 568 558 686 
347 136 516 781 
348 490 555 662 
349 560 557 697 
350 734 677 784 
351 195 668 691 
352 316 580 723 
353 333 547 548 
354 597 196 713 
355 522 192 739 
356 598 597 713 
357 312 517 765 
358 123 607 788 
359 161 550 823 
360 560 372 682 
361 546 545 547 
362 551 556 560 
363 163 53 710 
364 552 197 764 
365 606 607 786 
366 61 165 556 
367 370 153 514 
368 368 370 371 
369 367 369 525 
370 362 567 568 
371 568 679 699 
372 40 41 358 
373 42 43 536 
374 533 463 534 
375 60 61 556 
376 481 480 482 
377 489 684 757 
378 532 533 564 
379 59 60 551 
380 556 165 557 
381 534 463 563 
382 544 513 545 
383 172 366 561 
384 562 366 575 
385 551 60 556 
386 543 355 553 
387 93 94 552 
388 91 92 361 
389 537 707 778 
390 598 713 735 
391 548 547 549 
392 720 145 745 
393 726 141 743 
394 603 690 721 
395 525 369 526 
396 463 462 563 
397 366 174 575 
398 533 534 535 
399 481 482 499 
400 354 540 736 
401 557 165 558 
402 556 557 560 
403 58 172 561 
404 548 549 550 
405 565 497 566 
406 567 558 568 
407 175 173 682 
408 489 459 719 
409 464 497 565 
410 526 369 527 
411 481 499 540 
412 499 482 500 
413 57 58 561 
414 473 569 571 
415 339 473 571 
416 179 208 575 
417 443 339 571 
418 570 443 652 
419 443 571 652 
420 443 570 581 
421 208 562 575 
422 372 560 697 
423 526 527 528 
424 176 179 575 
425 570 572 581 
426 189 178 572 
427 570 189 572 
428 528 527 529 
429 178 177 572 
430 529 527 530 
431 492 573 574 
432 187 219 581 
433 573 492 577 
434 576 203 577 
435 219 443 581 
436 183 187 581 
437 375 576 577 
438 492 375 577 
439 203 576 578 
440 573 577 639 
441 577 203 639 
442 181 578 613 
443 578 576 613 
444 181 180 578 
445 296 313 674 
446 249 251 636 
447 184 372 608 
448 351 477 661 
449 243 245 628 
450 445 617 618 
451 256 588 618 
452 617 256 618 
453 579 253 629 
454 587 351 661 
455 672 643 673 
456 251 296 636 
457 256 249 636 
458 623 385 633 
459 239 241 630 
460 585 385 623 
461 386 582 586 
462 245 617 628 
463 349 599 638 
464 253 243 628 
465 379 591 627 
466 617 445 628 
467 261 630 640 
468 636 296 674 
469 599 439 638 
470 286 623 633 
471 346 583 592 
472 448 446 585 
473 583 346 591 
474 253 579 630 
475 448 585 623 
476 253 628 629 
477 588 256 636 
478 421 378 626 
479 438 519 580 
480 626 261 640 
481 215 213 610 
482 379 406 591 
483 234 324 664 
484 478 350 589 
485 406 583 591 
486 429 428 593 
487 605 604 635 
488 357 377 611 
489 582 386 585 
490 591 306 627 
491 378 376 626 
492 342 331 647 
493 347 346 592 
494 261 239 630 
495 257 252 615 
496 449 490 662 
497 180 190 578 
498 416 347 592 
499 430 445 618 
500 241 253 630 
501 213 341 610 
502 376 625 626 
503 377 531 611 
504 397 334 590 
505 429 593 594 
506 432 430 618 
507 428 431 593 
508 252 250 615 
509 330 605 635 
510 313 351 674 
511 382 384 632 
512 446 582 585 
513 365 357 611 
514 576 373 613 
515 314 200 652 
516 407 631 650 
517 600 268 651 
518 364 215 610 
519 376 310 625 
520 422 434 584 
521 373 212 613 
522 350 325 589 
523 271 274 649 
524 393 502 589 
525 287 286 633 
526 295 293 604 
527 656 456 666 
528 387 297 653 
529 263 262 612 
530 472 609 620 
531 403 600 651 
532 337 407 650 
533 272 379 627 
534 222 401 595 
535 601 397 602 
536 331 388 647 
537 212 209 613 
538 386 586 590 
539 494 390 645 
540 390 391 645 
541 335 207 608 
542 246 244 624 
543 298 254 641 
544 307 382 634 
545 384 448 632 
546 206 349 638 
547 392 298 641 
548 604 293 635 
549 270 267 619 
550 299 246 624 
551 268 600 643 
552 382 632 634 
553 308 270 619 
554 609 236 620 
555 380 604 605 
556 334 386 590 
557 329 397 601 
558 435 605 665 
559 274 305 649 
560 297 275 653 
561 421 626 640 
562 479 308 619 
563 309 295 604 
564 221 223 642 
565 231 234 664 
566 400 314 652 
567 306 276 627 
568 466 342 647 
569 278 307 634 
570 393 441 502 
571 327 221 642 
572 236 233 620 
573 448 622 632 
574 588 432 618 
575 357 310 376 
576 449 365 490 
577 227 229 657 
578 637 387 653 
579 341 440 610 
580 506 438 507 
581 431 432 433 
582 490 365 518 
583 569 400 571 
584 587 432 588 
585 386 385 585 
586 375 373 576 
587 325 392 393 
588 337 352 407 
589 268 269 651 
590 348 309 380 
591 431 468 593 
592 380 309 604 
593 474 359 631 
594 507 438 580 
595 231 232 233 
596 399 314 400 
597 200 570 652 
598 324 310 357 
599 218 220 221 
600 389 387 637 
601 272 308 379 
602 218 221 327 
603 190 202 203 
604 247 256 617 
605 630 579 640 
606 325 393 589 
607 412 380 435 
608 305 331 342 
609 331 387 388 
610 625 261 626 
611 202 323 639 
612 491 375 492 
613 446 411 447 
614 307 346 347 
615 453 451 456 
616 422 424 434 
617 202 314 323 
618 408 352 616 
619 341 373 374 
620 279 278 634 
621 504 412 516 
622 420 421 422 
623 405 308 479 
624 631 359 650 
625 391 451 452 
626 251 250 252 
627 351 350 477 
628 395 402 403 
629 518 365 611 
630 410 510 511 
631 278 276 306 
632 337 338 352 
633 340 470 487 
634 288 287 289 
635 417 439 485 
636 206 207 317 
637 231 233 234 
638 260 258 262 
639 341 212 373 
640 345 472 620 
641 320 321 322 
642 259 258 260 
643 266 263 612 
644 216 215 217 
645 388 390 493 
646 435 380 605 
647 426 428 429 
648 431 433 468 
649 275 276 277 
650 339 417 473 
651 323 314 399 
652 472 471 475 
653 223 222 224 
654 260 263 264 
655 340 321 418 
656 213 212 341 
657 393 394 441 
658 377 419 531 
659 232 344 345 
660 406 488 495 
661 307 347 382 
662 223 225 226 
663 251 254 296 
664 323 410 639 
665 619 266 646 
666 223 224 225 
667 235 233 236 
668 216 217 218 
669 190 203 578 
670 265 263 266 
671 420 378 421 
672 471 396 484 
673 281 279 282 
674 318 207 335 
675 437 438 506 
676 340 418 470 
677 289 287 290 
678 329 334 397 
679 477 350 478 
680 377 378 419 
681 388 389 390 
682 391 450 451 
683 425 423 579 
684 305 342 395 
685 422 421 423 
686 353 437 616 
687 349 359 404 
688 319 309 348 
689 289 291 292 
690 339 326 417 
691 206 317 349 
692 268 267 269 
693 322 321 340 
694 349 404 599 
695 403 402 414 
696 251 252 254 
697 307 306 346 
698 280 279 281 
699 433 432 587 
700 426 425 427 
701 243 244 245 
702 426 427 428 
703 411 383 606 
704 374 373 375 
705 384 383 411 
706 244 328 624 
707 296 254 298 
708 391 389 450 
709 341 374 440 
710 275 273 276 
711 425 579 629 
712 260 262 263 
713 277 276 278 
714 292 293 294 
715 272 270 308 
716 422 423 424 
717 403 415 600 
718 227 228 229 
719 264 263 265 
720 453 458 654 
721 219 326 339 
722 304 309 319 
723 428 430 431 
724 452 451 453 
725 274 273 275 
726 606 416 607 
727 239 240 241 
728 403 414 415 
729 269 271 649 
730 303 295 304 
731 214 213 215 
732 292 294 302 
733 573 511 574 
734 247 248 249 
735 241 240 242 
736 241 242 243 
737 284 283 285 
738 420 422 584 
739 222 220 401 
740 345 396 471 
741 329 301 334 
742 237 238 239 
743 255 258 259 
744 265 267 268 
745 249 248 250 
746 226 227 332 
747 388 387 389 
748 243 242 244 
749 226 332 381 
750 237 239 261 
751 596 597 598 
752 317 207 318 
753 320 322 354 
754 601 602 603 
755 294 295 303 
756 353 363 437 
757 377 376 378 
758 241 243 253 
759 245 247 617 
760 458 459 489 
761 294 293 295 
762 239 238 240 
763 247 249 256 
764 304 295 309 
765 245 244 246 
766 410 511 573 
767 277 279 280 
768 281 283 284 
769 318 336 337 
770 237 236 238 
771 208 210 562 
772 187 205 219 
773 388 493 647 
774 325 298 392 
775 446 447 582 
776 238 236 609 
777 234 233 235 
778 269 267 270 
779 281 282 283 
780 229 230 231 
781 415 414 522 
782 231 230 232 
783 240 238 311 
784 210 209 211 
785 468 469 523 
786 384 411 446 
787 404 359 474 
788 250 614 615 
789 274 275 297 
790 206 188 207 
791 271 270 272 
792 292 291 293 
793 399 400 498 
794 336 335 436 
795 217 215 364 
796 381 398 512 
797 305 297 331 
798 296 298 313 
799 353 362 363 
800 305 395 649 
801 502 441 515 
802 300 329 330 
803 219 339 443 
804 304 319 320 
805 224 222 595 
806 248 246 299 
807 226 381 642 
808 249 250 251 
809 453 456 457 
810 406 495 583 
811 244 242 328 
812 498 400 569 
813 437 363 438 
814 190 200 202 
815 271 272 273 
816 225 224 644 
817 382 383 384 
818 247 246 248 
819 293 291 635 
820 334 385 386 
821 285 283 286 
822 300 301 329 
823 383 347 416 
824 458 457 459 
825 255 257 258 
826 334 301 385 
827 431 430 432 
828 300 290 301 
829 407 352 408 
830 221 222 223 
831 354 322 355 
832 227 225 228 
833 208 209 210 
834 337 336 338 
835 235 236 237 
836 285 286 287 
837 393 392 394 
838 311 238 609 
839 442 454 455 
840 289 290 291 
841 419 378 420 
842 265 266 267 
843 410 409 510 
844 254 252 255 
845 292 302 621 
846 430 427 445 
847 214 215 216 
848 229 228 230 
849 345 471 472 
850 383 416 606 
851 324 449 664 
852 211 209 212 
853 396 344 460 
854 313 325 350 
855 417 326 439 
856 318 335 336 
857 255 252 257 
858 390 389 391 
859 357 376 377 
860 232 345 620 
861 234 310 324 
862 470 418 517 
863 450 389 637 
864 479 619 646 
865 428 427 430 
866 291 290 300 
867 269 270 271 
868 438 363 519 
869 234 235 310 
870 245 246 247 
871 221 220 222 
872 277 278 279 
873 379 308 405 
874 348 380 412 
875 226 225 227 
876 571 400 652 
877 657 449 662 
878 219 205 326 
879 224 596 644 
880 271 273 274 
881 406 405 488 
882 345 344 396 
883 203 202 639 
884 237 261 625 
885 424 425 426 
886 200 189 570 
887 285 287 288 
888 214 216 333 
889 349 317 359 
890 346 306 591 
891 288 289 621 
892 442 455 467 
893 353 338 362 
894 211 212 213 
895 424 423 425 
896 218 217 220 
897 323 409 410 
898 320 319 321 
899 266 612 646 
900 395 403 651 
901 278 306 307 
902 323 399 409 
903 224 595 596 
904 453 457 458 
905 211 213 214 
906 596 595 597 
907 313 298 325 
908 395 342 402 
909 205 188 206 
910 384 446 448 
911 274 297 305 
912 379 405 406 
913 352 353 616 
914 605 330 665 
915 382 347 383 
916 223 226 642 
917 267 266 619 
918 468 433 469 
919 352 338 353 
920 331 297 387 
921 330 329 601 
922 402 342 466 
923 209 181 613 
924 381 332 398 
925 202 200 314 
926 232 230 344 
927 324 365 449 
928 493 390 494 
929 289 292 621 
930 657 229 664 
931 348 412 504 
932 286 283 622 
933 374 375 491 
934 324 357 365 
935 531 419 554 
936 434 424 648 
937 291 300 635 
938 233 232 620 
939 313 350 351 
940 445 427 629 
941 442 394 454 
942 622 448 623 
943 418 321 660 
944 207 188 608 
945 427 425 629 
946 456 451 666 
947 260 264 669 
948 265 268 643 
949 190 189 200 
950 228 225 644 
951 391 452 645 
952 410 573 639 
953 187 188 205 
954 441 394 442 
955 250 248 614 
956 452 453 654 
957 284 656 666 
958 310 235 625 
959 282 279 634 
960 455 672 673 
961 318 337 650 
962 300 330 635 
963 290 287 633 
964 208 181 209 
965 424 426 648 
966 269 649 651 
967 254 255 641 
968 281 284 658 
969 641 259 663 
970 330 601 665 
971 235 237 625 
972 628 445 629 
973 248 299 614 
974 439 326 638 
975 359 317 650 
976 317 318 650 
977 230 228 655 
978 188 184 608 
979 283 282 622 
980 385 301 633 
981 426 429 648 
982 643 600 673 
983 286 622 623 
984 264 265 643 
985 344 230 655 
986 275 277 653 
987 632 282 634 
988 655 644 667 
989 649 395 651 
990 460 344 655 
991 280 281 658 
992 449 657 664 
993 663 259 669 
994 228 644 655 
995 622 282 632 
996 450 637 658 
997 301 290 633 
998 392 641 663 
999 332 227 657 
1000 277 280 653 
1001 255 259 641 
1002 205 206 638 
1003 179 181 208 
1004 180 189 190 
1005 423 421 640 
1006 273 272 627 
1007 187 184 188 
1008 217 364 659 
1009 644 596 667 
1010 460 655 667 
1011 280 637 653 
1012 326 205 638 
1013 579 423 640 
1014 637 280 658 
1015 264 643 672 
1016 276 273 627 
1017 469 433 661 
1018 467 455 675 
1019 456 656 670 
1020 601 603 665 
1021 401 220 659 
1022 658 284 666 
1023 669 264 672 
1024 348 504 660 
1025 220 217 659 
1026 351 587 674 
1027 229 231 664 
1028 596 598 667 
1029 433 587 661 
1030 656 288 670 
1031 288 621 670 
1032 415 522 675 
1033 284 285 656 
1034 374 491 668 
1035 440 374 668 
1036 451 450 666 
1037 285 288 656 
1038 321 319 660 
1039 670 621 671 
1040 457 456 670 
1041 259 260 669 
1042 454 663 669 
1043 394 392 663 
1044 319 348 660 
1045 457 670 671 
1046 398 332 662 
1047 454 394 663 
1048 450 658 666 
1049 459 457 671 
1050 621 302 671 
1051 600 415 673 
1052 455 673 675 
1053 455 454 672 
1054 587 588 674 
1055 454 669 672 
1056 332 657 662 
1057 572 183 581 
1058 588 636 674 
1059 673 415 675 
1060 183 184 187 
1061 179 180 181 
1062 180 178 189 
1063 184 182 372 
1064 177 183 572 
1065 183 182 184 
1066 179 178 180 
1067 176 178 179 
1068 177 182 183 
1069 176 177 178 
1070 177 175 182 
1071 174 176 575 
1072 176 175 177 
1073 462 476 563 
1074 476 464 565 
1075 464 496 497 
1076 584 434 676 
1077 13 14 171 
1078 526 528 698 
1079 174 175 176 
1080 464 461 496 
1081 462 464 476 
1082 182 175 682 
1083 523 469 705 
1084 31 32 186 
1085 33 34 444 
1086 125 126 677 
1087 599 749 752 
1088 38 39 146 
1089 171 501 542 
1090 543 553 685 
1091 48 49 157 
1092 23 24 170 
1093 25 26 147 
1094 84 744 758 
1095 39 40 678 
1096 34 35 681 
1097 50 51 191 
1098 54 55 193 
1099 45 46 149 
1100 43 44 194 
1101 63 64 679 
1102 61 62 165 
1103 64 65 185 
1104 11 12 343 
1105 68 69 360 
1106 20 21 141 
1107 56 57 161 
1108 16 17 150 
1109 35 36 148 
1110 26 27 680 
1111 27 28 192 
1112 520 166 521 
1113 536 194 537 
1114 18 19 315 
1115 372 182 682 
1116 170 24 524 
1117 29 30 151 
1118 603 602 779 
1119 172 174 366 
1120 174 173 175 
1121 29 151 538 
1122 462 461 464 
1123 142 462 463 
1124 17 18 684 
1125 116 117 367 
1126 35 148 681 
1127 27 192 680 
1128 64 185 679 
1129 147 26 680 
1130 110 111 532 
1131 62 63 686 
1132 171 14 413 
1133 558 165 686 
1134 517 312 793 
1135 146 39 678 
1136 150 17 684 
1137 444 34 681 
1138 127 128 199 
1139 63 679 686 
1140 165 62 686 
1141 608 372 697 
1142 436 335 697 
1143 98 99 195 
1144 100 101 166 
1145 18 315 684 
1146 80 4 465 
1147 173 551 682 
1148 71 72 509 
1149 79 80 687 
1150 73 74 201 
1151 75 76 169 
1152 78 79 167 
1153 77 78 688 
1154 76 77 689 
1155 139 140 312 
1156 137 138 164 
1157 171 413 501 
1158 129 130 144 
1159 133 134 690 
1160 134 135 156 
1161 114 115 143 
1162 119 120 198 
1163 82 83 162 
1164 85 86 158 
1165 102 103 196 
1166 121 122 145 
1167 124 125 159 
1168 94 95 197 
1169 96 97 155 
1170 89 90 154 
1171 105 106 160 
1172 108 109 152 
1173 97 98 691 
1174 90 91 692 
1175 128 129 693 
1176 343 12 694 
1177 171 542 694 
1178 12 13 694 
1179 74 75 695 
1180 161 57 561 
1181 505 166 520 
1182 13 171 694 
1183 101 102 696 
1184 100 166 505 
1185 173 59 551 
1186 396 460 703 
1187 52 53 163 
1188 87 88 356 
1189 335 608 697 
1190 566 497 698 
1191 77 688 689 
1192 167 79 687 
1193 78 167 688 
1194 169 76 689 
1195 80 465 687 
1196 193 55 701 
1197 56 161 701 
1198 172 173 174 
1199 397 590 704 
1200 159 125 677 
1201 134 156 690 
1202 155 97 691 
1203 154 90 692 
1204 129 144 693 
1205 201 74 695 
1206 75 169 695 
1207 52 163 486 
1208 328 563 813 
1209 58 59 172 
1210 696 196 700 
1211 732 584 822 
1212 142 461 462 
1213 495 488 820 
1214 102 196 696 
1215 98 195 691 
1216 86 87 708 
1217 521 166 696 
1218 711 22 727 
1219 199 128 693 
1220 580 519 723 
1221 521 696 700 
1222 756 343 776 
1223 648 429 707 
1224 111 112 142 
1225 679 185 699 
1226 166 101 696 
1227 684 315 757 
1228 117 118 153 
1229 131 132 204 
1230 409 399 709 
1231 172 59 173 
1232 148 36 705 
1233 687 474 774 
1234 55 56 701 
1235 142 112 461 
1236 66 67 316 
1237 535 311 809 
1238 479 646 794 
1239 21 22 711 
1240 484 396 703 
1241 170 524 741 
1242 302 294 712 
1243 54 193 710 
1244 594 678 778 
1245 486 163 824 
1246 96 155 706 
1247 197 95 706 
1248 40 358 678 
1249 43 194 536 
1250 87 356 708 
1251 602 397 704 
1252 36 37 705 
1253 164 138 765 
1254 515 441 716 
1255 442 467 716 
1256 407 408 717 
1257 704 144 725 
1258 414 402 718 
1259 583 495 720 
1260 333 548 730 
1261 435 665 721 
1262 586 582 722 
1263 429 594 707 
1264 95 96 706 
1265 495 683 720 
1266 94 197 552 
1267 91 361 692 
1268 7 8 168 
1269 5 6 483 
1270 9 10 539 
1271 6 7 702 
1272 517 418 724 
1273 660 504 724 
1274 201 508 790 
1275 499 500 712 
1276 475 535 809 
1277 399 498 709 
1278 522 414 787 
1279 19 20 726 
1280 53 54 710 
1281 210 211 730 
1282 214 333 730 
1283 530 527 728 
1284 149 732 822 
1285 315 19 726 
1286 494 711 727 
1287 23 170 727 
1288 196 103 713 
1289 257 615 733 
1290 405 479 731 
1291 158 86 708 
1292 420 584 732 
1293 554 419 732 
1294 553 487 807 
1295 411 606 734 
1296 478 541 805 
1297 369 368 728 
1298 703 460 748 
1299 161 561 750 
1300 818 198 820 
1301 549 547 738 
1302 366 562 750 
1303 408 616 799 
1304 320 354 736 
1305 303 304 736 
1306 141 21 711 
1307 412 435 737 
1308 302 712 796 
1309 661 477 740 
1310 647 493 741 
1311 144 130 725 
1312 157 531 771 
1313 690 156 721 
1314 153 118 818 
1315 691 668 821 
1316 645 452 743 
1317 535 475 829 
1318 416 592 745 
1319 514 153 818 
1320 294 303 712 
1321 510 409 775 
1322 50 191 742 
1323 157 49 742 
1324 67 68 768 
1325 744 485 758 
1326 192 538 739 
1327 368 371 728 
1328 398 555 824 
1329 84 85 744 
1330 704 590 770 
1331 743 654 810 
1332 683 145 720 
1333 105 160 735 
1334 497 496 747 
1335 695 169 755 
1336 688 167 717 
1337 160 703 748 
1338 667 598 748 
1339 506 695 755 
1340 648 707 791 
1341 439 599 752 
1342 616 437 755 
1343 139 312 765 
1344 654 458 757 
1345 103 104 713 
1346 562 210 761 
1347 505 520 714 
1348 685 553 807 
1349 494 645 815 
1350 675 522 739 
1351 151 30 785 
1352 88 89 759 
1353 676 194 753 
1354 594 593 760 
1355 468 523 760 
1356 441 442 716 
1357 194 44 753 
1358 45 149 753 
1359 417 485 762 
1360 631 407 717 
1361 402 466 718 
1362 483 6 702 
1363 7 168 702 
1364 749 162 752 
1365 555 486 824 
1366 47 554 819 
1367 500 482 719 
1368 484 703 767 
1369 144 704 770 
1370 592 583 720 
1371 491 492 769 
1372 665 603 721 
1373 582 447 722 
1374 712 500 796 
1375 668 491 821 
1376 140 1 746 
1377 316 67 768 
1378 130 131 725 
1379 707 537 791 
1380 467 739 814 
1381 258 257 783 
1382 418 660 724 
1383 702 168 807 
1384 162 83 758 
1385 356 88 759 
1386 8 9 715 
1387 676 434 791 
1388 484 767 780 
1389 22 23 727 
1390 499 712 804 
1391 20 141 726 
1392 1 5 746 
1393 459 671 796 
1394 160 106 767 
1395 475 471 797 
1396 472 475 809 
1397 311 609 809 
1398 542 543 776 
1399 31 186 785 
1400 69 70 828 
1401 123 124 786 
1402 46 47 819 
1403 739 538 814 
1404 527 369 728 
1405 507 580 729 
1406 148 705 740 
1407 211 214 730 
1408 136 137 792 
1409 711 494 815 
1410 685 168 715 
1411 113 114 801 
1412 168 8 715 
1413 9 539 715 
1414 108 152 780 
1415 713 104 735 
1416 706 155 769 
1417 73 201 790 
1418 509 72 790 
1419 191 555 811 
1420 555 490 811 
1421 488 405 731 
1422 404 474 777 
1423 530 728 763 
1424 703 160 767 
1425 32 33 798 
1426 712 303 804 
1427 747 496 801 
1428 119 198 818 
1429 131 204 725 
1430 419 420 732 
1431 694 542 776 
1432 33 444 798 
1433 2 11 782 
1434 528 529 733 
1435 467 675 739 
1436 447 411 734 
1437 361 552 764 
1438 143 525 802 
1439 533 535 829 
1440 612 530 763 
1441 740 477 772 
1442 705 469 740 
1443 717 167 774 
1444 104 105 735 
1445 780 152 797 
1446 10 2 782 
1447 574 706 769 
1448 547 545 738 
1449 707 594 778 
1450 754 614 800 
1451 599 404 749 
1452 126 127 789 
1453 526 698 802 
1454 477 478 772 
1455 304 320 736 
1456 516 412 737 
1457 355 542 816 
1458 677 126 789 
1459 470 517 793 
1460 554 47 771 
1461 469 661 740 
1462 466 647 741 
1463 684 489 827 
1464 49 50 742 
1465 752 162 758 
1466 690 603 779 
1467 452 654 743 
1468 631 717 774 
1469 607 416 745 
1470 615 614 754 
1471 210 730 761 
1472 444 541 798 
1473 541 186 798 
1474 566 754 800 
1475 85 158 744 
1476 487 470 751 
1477 48 157 771 
1478 514 818 820 
1479 485 744 762 
1480 312 140 746 
1481 47 48 771 
1482 156 135 781 
1483 541 444 805 
1484 465 503 777 
1485 528 733 826 
1486 772 478 805 
1487 646 612 763 
1488 719 482 803 
1489 561 366 750 
1490 460 667 748 
1491 728 371 763 
1492 343 539 782 
1493 483 751 793 
1494 698 497 747 
1495 485 439 752 
1496 542 501 816 
1497 762 158 766 
1498 741 493 808 
1499 447 734 784 
1500 44 45 753 
1501 437 506 755 
1502 733 754 826 
1503 122 123 788 
1504 458 489 757 
1505 715 539 756 
1506 543 685 756 
1507 150 684 827 
1508 498 569 773 
1509 548 550 761 
1510 83 84 758 
1511 593 468 760 
1512 473 417 762 
1513 719 803 827 
1514 154 692 775 
1515 473 762 766 
1516 698 747 802 
1517 145 122 788 
1518 511 510 764 
1519 493 494 808 
1520 569 473 766 
1521 89 154 759 
1522 709 498 817 
1523 143 747 801 
1524 554 732 819 
1525 5 483 746 
1526 565 566 800 
1527 742 191 811 
1528 148 740 772 
1529 138 139 765 
1530 135 136 781 
1531 106 107 767 
1532 371 370 794 
1533 565 800 806 
1534 491 769 821 
1535 685 715 756 
1536 616 755 799 
1537 68 360 768 
1538 730 548 761 
1539 709 154 775 
1540 147 680 787 
1541 492 574 769 
1542 590 586 770 
1543 476 565 806 
1544 693 144 770 
1545 668 195 795 
1546 531 554 771 
1547 693 770 825 
1548 11 343 782 
1549 476 806 813 
1550 158 708 766 
1551 681 148 772 
1552 409 709 775 
1553 474 631 774 
1554 483 702 751 
1555 167 687 774 
1556 563 476 813 
1557 770 586 825 
1558 767 107 780 
1559 343 694 776 
1560 678 358 778 
1561 737 156 781 
1562 536 358 812 
1563 440 668 795 
1564 262 258 783 
1565 30 31 785 
1566 414 718 787 
1567 107 108 780 
1568 766 708 773 
1569 681 772 805 
1570 303 736 804 
1571 124 159 786 
1572 645 743 815 
1573 434 648 791 
1574 72 73 790 
1575 731 479 794 
1576 654 757 810 
1577 733 615 754 
1578 569 766 773 
1579 127 199 789 
1580 708 356 773 
1581 485 752 758 
1582 671 302 796 
1583 484 780 797 
1584 753 149 822 
1585 471 484 797 
1586 494 727 808 
1587 137 164 792 
1588 360 729 768 
1589 482 480 803 
1590 698 528 826 
1591 744 158 762 
1592 186 32 798 
1593 170 741 808 
1594 614 299 800 
1595 525 526 802 
1596 718 147 787 
1597 800 299 806 
1598 586 722 825 
1599 540 499 804 
1600 550 549 823 
1601 299 624 806 
1602 716 467 814 
1603 538 151 814 
1604 806 624 813 
1605 564 533 829 
1606 118 119 818 
1607 169 689 799 
1608 609 472 809 
1609 444 681 805 
1610 727 170 808 
1611 490 518 811 
1612 624 328 813 
1613 354 355 816 
1614 539 10 782 
1615 114 143 801 
1616 512 398 824 
1617 584 676 822 
1618 168 685 807 
1619 732 149 819 
1620 149 46 819 
1621 745 145 788 
1622 360 69 828 
1623 701 161 823 
1624 370 731 794 
1625 714 440 795 
1626 42 536 812 
1627 358 41 812 
1628 566 698 826 
1629 518 742 811 
1630 155 691 821 
1631 199 693 825 
1632 549 701 823 
1633 722 447 784 
1634 516 737 781 
1635 141 711 815 
1636 41 42 812 
1637 151 716 814 
1638 607 745 788 
1639 755 169 799 
1640 543 756 776 
1641 722 199 825 
1642 736 540 804 
1643 747 143 802 
1644 315 726 810 
1645 489 719 827 
1646 784 677 789 
1647 743 141 815 
1648 498 773 817 
1649 769 155 821 
1650 803 150 827 
1651 751 470 793 
1652 773 356 817 
1653 676 753 822 
1654 757 315 810 
1655 754 566 826 
1656 356 759 817 
$EndElements
$Projection
WKT
PROJCS["TWD97 / TM2 zone 121",GEOGCS["TWD97",DATUM["Taiwan_Datum_1997",SPHEROID["GRS 1980",6378137,298.257222101,AUTHORITY["EPSG","7019"]],AUTHORITY["EPSG","1026"]],PRIMEM["Greenwich",0,AUTHORITY["EPSG","8901"]],UNIT["degree",0.0174532925199433,AUTHORITY["EPSG","9122"]],AUTHORITY["EPSG","3824"]],PROJECTION["Transverse_Mercator"],PARAMETER["latitude_of_origin",0],PARAMETER["central_meridian",121],PARAMETER["scale_factor",0.9999],PARAMETER["false_easting",250000],PARAMETER["false_northing",0],UNIT["metre",1,AUTHORITY["EPSG","9001"]],AXIS["Easting",EAST],AXIS["Northing",NORTH],AUTHORITY["EPSG","3826"]]
$EndProjection
$Projection
WKT
PROJCS["TWD97 / TM2 zone 121",GEOGCS["TWD97",DATUM["Taiwan_Datum_1997",SPHEROID["GRS 1980",6378137,298.257222101,AUTHORITY["EPSG","7019"]],AUTHORITY["EPSG","1026"]],PRIMEM["Greenwich",0,AUTHORITY["EPSG","8901"]],UNIT["degree",0.0174532925199433,AUTHORITY["EPSG","9122"]],AUTHORITY["EPSG","3824"]],PROJECTION["Transverse_Mercator"],PARAMETER["latitude_of_origin",0],PARAMETER["central_meridian",121],PARAMETER["scale_factor",0.9999],PARAMETER["false_easting",250000],PARAMETER["false_northing",0],UNIT["metre",1,AUTHORITY["EPSG","9001"]],AXIS["Easting",EAST],AXIS["Northing",NORTH],AUTHORITY["EPSG","3826"]]
$EndProjection
